<svg xmlns="http://www.w3.org/2000/svg" version="1.1" xmlns:xlink="http://www.w3.org/1999/xlink" xmlns:svgjs="http://svgjs.dev/svgjs" width="1500" height="1500" viewBox="0 0 1500 1500"><rect width="1500" height="1500" fill="#ffffff"></rect><g transform="matrix(0.6666666666666666,0,0,0.6666666666666666,249.39393939393938,589.2020519183887)"><svg viewBox="0 0 396 128" data-background-color="#ffffff" preserveAspectRatio="xMidYMid meet" height="484" width="1500" xmlns="http://www.w3.org/2000/svg" xmlns:xlink="http://www.w3.org/1999/xlink"><g id="tight-bounds" transform="matrix(1,0,0,1,0.2400000000000091,-0.212384232088084)"><svg viewBox="0 0 395.52 128.4247684641762" height="128.4247684641762" width="395.52"><g><svg viewBox="0 0 678.180695813212 220.20428508466233" height="128.4247684641762" width="395.52"><g transform="matrix(1,0,0,1,0,43.96198987057545)"><svg viewBox="0 0 395.52 132.28030534351143" height="132.28030534351143" width="395.52"><g id="textblocktransform"><svg viewBox="0 0 395.52 132.28030534351143" height="132.28030534351143" width="395.52" id="textblock"><g><svg viewBox="0 0 395.52 132.28030534351143" height="132.28030534351143" width="395.52"><g transform="matrix(1,0,0,1,0,0)"><svg width="395.52" viewBox="0 -34.5 104.79 35.05" height="132.28030534351143" data-palette-color="#8bc53f"><path d="M8.85-29.45L0-28.75 0.55-34.5 24.3-34.5 23.75-28.75 15.05-29.5 14.85-13 15.45 0 8.45 0 9.05-12.15 8.85-29.45ZM26.65-24.15L26.65-24.15 32.7-25.45Q33.15-21.6 33.3-18.15L33.3-18.15Q37.85-25.2 41.85-25.2L41.85-25.2 41.3-17.4Q38.4-17.4 36.72-16.88 35.05-16.35 33.3-14.8L33.3-14.8 33.3-13 33.85-1.25 27.15 0 27.75-12.15Q27.55-18.85 26.65-24.15ZM43.49-10.45Q43.49-16.85 46.95-21.3 50.39-25.75 55.02-25.75 59.64-25.75 62.22-22.75 64.8-19.75 64.8-14.8L64.8-14.8Q64.8-8.2 61.47-3.83 58.14 0.55 53.09 0.55L53.09 0.55Q48.95 0.55 46.22-2.58 43.49-5.7 43.49-10.45L43.49-10.45ZM59.2-12.2L59.2-12.2Q59.2-19.45 54.24-19.45L54.24-19.45Q49.09-19.45 49.09-12.65L49.09-12.65Q49.09-9.1 50.55-7.1 51.99-5.1 54.37-5.1 56.74-5.1 57.97-6.93 59.2-8.75 59.2-12.2ZM68.14-24.2L71.04-24.2 71.04-29.65 77.79-30.95 77.14-24.2 83.19-24.2 82.64-20.1 76.94-20.1 76.69-9.65Q76.69-7.3 77.14-6.53 77.59-5.75 78.79-5.75 79.99-5.75 81.99-6.3L81.99-6.3 82.29-2.75Q78.99 0 76.49 0 73.99 0 72.39-1.83 70.79-3.65 70.79-6.6L70.79-6.6 71.09-12.2 71.04-20.1 67.59-20.1 68.14-24.2ZM95.84-5.1L95.84-5.1Q97.29-5.1 98.89-5.85 100.49-6.6 101.39-7.35L101.39-7.35 102.29-8.1 104.59-5.3Q104.09-4.45 103.04-3.35 101.99-2.25 100.91-1.48 99.84-0.7 98.06-0.08 96.29 0.55 94.39 0.55L94.39 0.55Q90.34 0.55 87.79-2.53 85.24-5.6 85.24-10.45L85.24-10.45Q85.24-16.55 88.79-21.15 92.34-25.75 97.09-25.75L97.09-25.75Q100.74-25.75 102.77-23.7 104.79-21.65 104.79-17.95L104.79-17.95Q104.79-15.75 104.04-12.95L104.04-12.95 103.04-11.9 90.54-10.75Q91.39-5.1 95.84-5.1ZM95.84-20.6L95.84-20.6Q93.64-20.6 92.14-18.82 90.64-17.05 90.39-14.3L90.39-14.3 98.89-15.35Q99.04-16.5 99.04-17.25L99.04-17.25Q99.04-20.6 95.84-20.6Z" opacity="1" transform="matrix(1,0,0,1,0,0)" fill="#8bc53f" class="wordmark-text-0" data-fill-palette-color="primary" id="text-0"></path></svg></g></svg></g></svg></g></svg></g><g transform="matrix(1,0,0,1,457.9764107285496,0)"><svg viewBox="0 0 220.20428508466233 220.20428508466233" height="220.20428508466233" width="220.20428508466233"><g><svg></svg></g><g id="icon-0"><svg viewBox="0 0 220.20428508466233 220.20428508466233" height="220.20428508466233" width="220.20428508466233"><g><path d="M0 110.102c0-60.808 49.294-110.102 110.102-110.102 60.808 0 110.102 49.294 110.102 110.102 0 60.808-49.294 110.102-110.102 110.102-60.808 0-110.102-49.294-110.102-110.102zM110.102 208.275c54.219 0 98.173-43.954 98.173-98.173 0-54.219-43.954-98.173-98.173-98.173-54.219 0-98.173 43.954-98.173 98.173 0 54.219 43.954 98.173 98.173 98.173z" data-fill-palette-color="accent" fill="#5d9943" stroke="transparent"></path></g><g transform="matrix(1,0,0,1,52.92727286562468,54.41233441566901)"><svg viewBox="0 0 114.34973935341297 111.37961625332431" height="111.37961625332431" width="114.34973935341297"><g><svg xmlns="http://www.w3.org/2000/svg" xmlns:xlink="http://www.w3.org/1999/xlink" version="1.1" x="0" y="0" viewBox="25 31 462 450" style="enable-background:new 0 0 512 512;" xml:space="preserve" height="111.37961625332431" width="114.34973935341297" class="icon-cg-0" data-fill-palette-color="accent" id="cg-0"><g fill="#5d9943" data-fill-palette-color="accent"><g fill="#5d9943" data-fill-palette-color="accent"><rect x="202" y="361" width="110" height="40" fill="#5d9943" data-fill-palette-color="accent"></rect><path d="M72 51.422C71.387 51.154 70.712 51 70 51H30c-2.761 0-5 2.239-5 5s2.239 5 5 5h40c0.712 0 1.387-0.154 2-0.422V71h40V41H72V51.422z" fill="#5d9943" data-fill-palette-color="accent"></path><rect x="202" y="201" width="110" height="30" fill="#5d9943" data-fill-palette-color="accent"></rect><rect x="202" y="281" width="110" height="30" fill="#5d9943" data-fill-palette-color="accent"></rect><path d="M72 131.422c-0.613-0.269-1.288-0.422-2-0.422H30c-2.761 0-5 2.239-5 5s2.239 5 5 5h40c0.712 0 1.387-0.154 2-0.422V151h40v-30H72V131.422z" fill="#5d9943" data-fill-palette-color="accent"></path><rect x="202" y="111" width="110" height="40" fill="#5d9943" data-fill-palette-color="accent"></rect><path d="M72 451.422c-0.613-0.269-1.288-0.422-2-0.422H30c-2.761 0-5 2.238-5 5s2.239 5 5 5h40c0.712 0 1.387-0.153 2-0.422V471h40v-30H72V451.422z" fill="#5d9943" data-fill-palette-color="accent"></path><path d="M442 61h40c2.762 0 5-2.239 5-5s-2.238-5-5-5h-40V41h-40v30h40V61z" fill="#5d9943" data-fill-palette-color="accent"></path><path d="M72 291.422c-0.613-0.269-1.288-0.422-2-0.422H30c-2.761 0-5 2.238-5 5s2.239 5 5 5h40c0.712 0 1.387-0.153 2-0.422V311h40v-30H72V291.422z" fill="#5d9943" data-fill-palette-color="accent"></path><path d="M72 371.422c-0.613-0.269-1.288-0.422-2-0.422H30c-2.761 0-5 2.238-5 5s2.239 5 5 5h40c0.712 0 1.387-0.153 2-0.422V391h40v-30H72V371.422z" fill="#5d9943" data-fill-palette-color="accent"></path><path d="M72 211.422c-0.613-0.269-1.288-0.422-2-0.422H30c-2.761 0-5 2.239-5 5s2.239 5 5 5h40c0.712 0 1.387-0.154 2-0.422V231h40v-30H72V211.422z" fill="#5d9943" data-fill-palette-color="accent"></path><path d="M122 36v40 40 40 40 40 40 40 40 40 40 40 5h270v-5-40-40-40-40-40-40-40-40-40V76 36v-5H122V36zM152 66c0-2.761 2.239-5 5-5h200c2.762 0 5 2.239 5 5v380c0 2.762-2.238 5-5 5H157c-2.761 0-5-2.238-5-5V66z" fill="#5d9943" data-fill-palette-color="accent"></path><path d="M352 71H162v370h190V71zM322 406c0 2.762-2.238 5-5 5H197c-2.761 0-5-2.238-5-5v-50c0-2.762 2.239-5 5-5h120c2.762 0 5 2.238 5 5V406zM322 316c0 2.762-2.238 5-5 5H197c-2.761 0-5-2.238-5-5v-40c0-2.762 2.239-5 5-5h120c2.762 0 5 2.238 5 5V316zM322 236c0 2.761-2.238 5-5 5H197c-2.761 0-5-2.239-5-5v-40c0-2.761 2.239-5 5-5h120c2.762 0 5 2.239 5 5V236zM322 156c0 2.761-2.238 5-5 5H197c-2.761 0-5-2.239-5-5v-50c0-2.761 2.239-5 5-5h120c2.762 0 5 2.239 5 5V156z" fill="#5d9943" data-fill-palette-color="accent"></path><path d="M482 131h-40v-10h-40v30h40v-10h40c2.762 0 5-2.239 5-5S484.762 131 482 131z" fill="#5d9943" data-fill-palette-color="accent"></path><path d="M482 211h-40v-10h-40v30h40v-10h40c2.762 0 5-2.239 5-5S484.762 211 482 211z" fill="#5d9943" data-fill-palette-color="accent"></path><path d="M482 291h-40v-10h-40v30h40v-10h40c2.762 0 5-2.238 5-5S484.762 291 482 291z" fill="#5d9943" data-fill-palette-color="accent"></path><path d="M482 371h-40v-10h-40v30h40v-10h40c2.762 0 5-2.238 5-5S484.762 371 482 371z" fill="#5d9943" data-fill-palette-color="accent"></path><path d="M482 451h-40v-10h-40v30h40v-10h40c2.762 0 5-2.238 5-5S484.762 451 482 451z" fill="#5d9943" data-fill-palette-color="accent"></path></g></g></svg></g></svg></g></svg></g></svg></g></svg></g><defs></defs></svg><rect width="395.52" height="128.4247684641762" fill="none" stroke="none" visibility="hidden"></rect></g></svg></g></svg>